<svg width="347" height="342" viewBox="0 0 347 342" xmlns="http://www.w3.org/2000/svg" xmlns:xlink="http://www.w3.org/1999/xlink"><title>0CD4A182-3E61-4C74-B2EC-0103A39F94C4</title><defs><linearGradient x1="100%" y1="50%" x2="0%" y2="50%" id="a"><stop stop-color="#85BED9" offset="0%"/><stop stop-color="#679FB7" offset="100%"/></linearGradient><linearGradient x1="100%" y1="50%" x2="1.84%" y2="50%" id="d"><stop stop-color="#E7B834" offset="0%"/><stop stop-color="#D57C27" offset="100%"/></linearGradient><path d="M327.758 54H168.242C160.41 54 154 60.402 154 68.226v104.56c0 7.825 6.41 14.226 14.242 14.226h19.94V224l57.682-36.988h81.894c7.833 0 14.242-6.401 14.242-14.225V68.226C342 60.402 335.59 54 327.758 54z" id="c"/><filter x="-4.3%" y="-4.1%" width="108.5%" height="109.4%" filterUnits="objectBoundingBox" id="b"><feOffset dy="1" in="SourceAlpha" result="shadowOffsetOuter1"/><feGaussianBlur stdDeviation="2.5" in="shadowOffsetOuter1" result="shadowBlurOuter1"/><feColorMatrix values="0 0 0 0 0 0 0 0 0 0 0 0 0 0 0 0 0 0 0.0928158967 0" in="shadowBlurOuter1"/></filter></defs><g fill="none"><path d="M195.586 0H21.414C9.28 0 0 9.263 0 21.375v299.25C0 332.737 9.28 342 21.414 342h174.172C207.72 342 217 332.737 217 320.625V21.375C217 9.263 207.72 0 195.586 0z" fill="#EAEAEA"/><path fill="url(#a)" d="M0 36h217v245H0z"/><circle fill="url(#a)" cx="108" cy="312" r="18"/><use fill="#000" filter="url(#b)" xlink:href="#c"/><use fill="url(#d)" fill-rule="evenodd" xlink:href="#c"/><path d="M280.736 100.592l-5.142-6.296c-.842-.864-1.867-1.296-3.07-1.296-1.206 0-2.23.432-3.072 1.296l-29.626 30.417-13.278-13.658c-.843-.864-1.866-1.296-3.07-1.296-1.205 0-2.229.432-3.072 1.296l-6.142 6.297c-.843.864-1.264 1.914-1.264 3.148 0 1.234.421 2.285 1.264 3.149l16.349 16.758 6.142 6.297c.843.864 1.866 1.296 3.07 1.296 1.205 0 2.229-.433 3.072-1.296l6.142-6.297 32.697-33.518c.842-.864 1.264-1.914 1.264-3.149 0-1.234-1.422-2.283-2.264-3.148z" fill="#FFF"/></g></svg>